<?xml version="1.0" standalone="no"?>
<!DOCTYPE svg PUBLIC "-//W3C//DTD SVG 20010904//EN"
 "http://www.w3.org/TR/2001/REC-SVG-20010904/DTD/svg10.dtd">
<svg version="1.0" xmlns="http://www.w3.org/2000/svg"
 width="425.000000pt" height="384.000000pt" viewBox="0 0 425.000000 384.000000"
 preserveAspectRatio="xMidYMid meet">

<g transform="translate(0.000000,384.000000) scale(0.100000,-0.100000)"
fill="#000000" stroke="none">
<path d="M1630 3694 c-25 -2 -144 -8 -265 -15 -121 -6 -238 -12 -260 -14 -22
-3 -87 -7 -145 -11 -58 -3 -108 -8 -112 -11 -5 -2 -8 -23 -8 -46 0 -129 -215
-385 -448 -534 -77 -50 -173 -83 -237 -83 l-55 0 0 -39 c0 -101 54 -511 89
-681 189 -907 623 -1580 1247 -1933 165 -93 371 -169 576 -211 l118 -25 116
24 c308 64 567 181 819 370 398 298 707 765 898 1360 76 237 152 591 172 805
4 36 10 106 15 155 6 50 10 109 10 133 l0 42 -48 0 c-133 0 -295 94 -477 278
-87 88 -174 203 -200 266 -8 20 -15 56 -15 81 l0 45 -57 1 c-32 1 -69 3 -83 4
-14 1 -72 5 -130 9 -58 4 -168 12 -245 17 -134 10 -1182 21 -1275 13z m1224
-173 c76 -6 196 -13 265 -16 69 -4 133 -8 141 -11 8 -2 24 -25 34 -51 72 -174
341 -445 551 -554 39 -20 87 -42 107 -49 l38 -12 -6 -71 c-17 -200 -80 -531
-146 -761 -105 -368 -277 -722 -478 -986 -79 -103 -246 -277 -339 -352 -233
-188 -518 -324 -803 -383 -85 -18 -91 -18 -175 0 -207 43 -455 144 -628 256
-605 392 -1001 1140 -1125 2127 -11 90 -20 165 -20 167 0 2 17 9 38 16 223 72
526 344 652 586 29 55 41 68 60 69 14 1 66 4 115 7 84 6 389 23 550 31 133 7
1030 -3 1169 -13z"/>
<path d="M1748 3469 c-136 -4 -348 -15 -471 -23 -124 -9 -231 -16 -239 -16 -9
0 -19 -20 -27 -51 -26 -101 -164 -273 -314 -395 -100 -80 -243 -154 -297 -154
-22 0 -41 -4 -44 -9 -8 -13 22 -276 50 -440 190 -1113 776 -1848 1619 -2030
95 -21 102 -21 177 -6 265 54 512 163 725 321 110 82 307 281 395 400 305 413
490 934 563 1584 21 191 24 177 -35 182 -99 10 -258 108 -398 246 -116 114
-212 259 -212 320 0 12 -6 25 -12 27 -18 6 -420 33 -598 39 -282 11 -638 13
-882 5z m712 -39 c168 -6 397 -17 509 -25 112 -8 209 -15 215 -15 6 0 19 -22
28 -48 10 -26 36 -76 58 -111 50 -77 202 -236 290 -302 75 -57 205 -125 256
-135 19 -3 36 -9 38 -13 6 -10 -12 -182 -35 -326 -87 -548 -265 -1009 -531
-1367 -82 -111 -252 -285 -363 -370 -208 -162 -449 -274 -710 -328 -88 -19
-90 -19 -184 1 -426 93 -794 334 -1067 700 -283 381 -469 883 -543 1467 -29
229 -30 228 17 237 180 32 516 331 597 531 12 30 24 56 27 59 8 8 440 36 683
44 353 12 382 12 715 1z"/>
<path d="M1800 3367 c-3 -2 -97 -8 -210 -12 -113 -4 -270 -12 -350 -18 l-144
-12 -17 -48 c-54 -151 -283 -389 -456 -473 -29 -15 -52 -28 -51 -29 2 -2 53 8
113 20 250 53 653 105 955 125 210 13 706 13 920 0 356 -22 842 -86 1105 -145
20 -4 8 5 -33 27 -98 52 -175 113 -280 223 -94 98 -152 180 -176 247 -6 18
-14 38 -18 44 -5 7 -83 16 -200 23 -106 7 -211 14 -233 16 -57 7 -919 18 -925
12z m-470 -102 c11 -13 8 -15 -21 -13 -30 3 -34 0 -37 -25 -4 -30 21 -48 41
-28 8 8 8 11 -1 11 -7 0 -12 5 -12 10 0 6 9 10 20 10 31 0 27 -48 -4 -56 -39
-9 -66 11 -66 51 0 49 51 74 80 40z m105 5 c4 -6 -7 -10 -24 -10 -17 0 -31 -4
-31 -10 0 -5 11 -10 25 -10 14 0 25 -4 25 -10 0 -5 -11 -10 -25 -10 -16 0 -25
-6 -25 -15 0 -10 10 -15 31 -15 17 0 28 -4 24 -10 -3 -5 -22 -10 -41 -10 l-34
0 0 55 0 55 34 0 c19 0 38 -4 41 -10z m96 -6 c9 -12 10 -20 2 -33 -7 -12 -8
-23 -1 -35 17 -31 -2 -31 -27 -1 -23 29 -27 28 -29 -5 -1 -8 -6 -15 -11 -15
-11 0 -19 69 -11 91 7 19 60 18 77 -2z m99 6 c0 -5 -11 -10 -25 -10 -14 0 -25
-4 -25 -10 0 -5 11 -10 25 -10 14 0 25 -4 25 -10 0 -5 -11 -10 -25 -10 -16 0
-25 -6 -25 -15 0 -9 9 -15 25 -15 14 0 25 -4 25 -10 0 -5 -16 -10 -35 -10
l-35 0 0 55 0 55 35 0 c19 0 35 -4 35 -10z m78 -36 c-4 -57 -27 -79 -55 -52
-19 20 -11 37 10 20 19 -16 27 -5 27 40 0 21 5 38 11 38 6 0 9 -19 7 -46z m91
-6 c22 -52 20 -77 -3 -45 -16 21 -42 22 -50 2 -9 -24 -28 -18 -20 7 14 47 35
88 43 88 4 0 18 -23 30 -52z m139 34 c3 -9 -3 -11 -22 -6 -36 9 -33 -9 4 -23
33 -12 39 -33 15 -53 -19 -15 -65 -5 -65 15 0 18 17 20 22 3 3 -7 11 -9 24 -4
17 8 16 10 -13 22 -51 22 -42 66 11 61 11 -1 21 -8 24 -15z m45 -37 c0 -25 -4
-46 -9 -47 -11 -3 -18 67 -9 89 9 26 18 6 18 -42z m91 39 c36 -35 7 -98 -43
-92 -22 3 -26 8 -29 42 -2 21 -1 44 2 52 7 19 51 18 70 -2z m101 -31 c8 -19
15 -42 15 -51 0 -13 -2 -13 -18 1 -10 10 -22 17 -27 17 -5 0 -17 -7 -27 -17
-24 -22 -24 -2 2 55 22 48 33 47 55 -5z m72 15 l18 -33 3 33 c5 53 22 36 22
-23 0 -63 -12 -69 -40 -22 l-20 32 0 -32 c0 -18 -4 -33 -10 -33 -5 0 -10 25
-10 55 0 63 12 70 37 23z m143 17 c11 -13 8 -15 -21 -13 -30 3 -34 0 -37 -25
-4 -30 21 -48 41 -28 8 8 8 11 -1 11 -7 0 -12 5 -12 10 0 6 9 10 20 10 31 0
27 -48 -4 -56 -39 -9 -66 11 -66 51 0 49 51 74 80 40z m134 9 c26 -10 18 -25
-9 -18 -14 3 -25 2 -25 -4 0 -5 11 -13 25 -16 18 -5 25 -13 25 -31 0 -34 -46
-47 -69 -19 -9 11 -24 18 -33 16 -10 -2 -18 1 -18 7 0 16 33 13 56 -4 10 -8
25 -15 32 -15 21 0 13 20 -13 30 -34 13 -34 60 1 60 7 0 19 -3 28 -6z m56 -49
c0 -30 -4 -55 -10 -55 -5 0 -10 25 -10 55 0 30 5 55 10 55 6 0 10 -25 10 -55z
m97 29 c15 -24 15 -29 2 -53 -10 -18 -24 -27 -47 -29 l-32 -3 0 55 c0 55 0 56
30 56 21 0 35 -8 47 -26z m96 -27 c19 -46 16 -80 -4 -44 -12 21 -45 22 -53 1
-3 -8 -10 -13 -15 -10 -12 8 30 107 43 103 6 -2 19 -25 29 -50z m95 13 c-2 14
2 26 7 28 12 3 19 -63 10 -87 -6 -13 -12 -10 -36 19 l-29 34 0 -34 c0 -26 -3
-31 -10 -20 -11 18 -13 83 -3 94 4 4 20 -8 35 -26 28 -32 28 -32 26 -8z m113
29 c11 -5 17 -14 14 -19 -4 -6 -14 -5 -25 3 -16 9 -23 9 -36 -5 -13 -12 -14
-20 -5 -37 12 -22 36 -28 46 -11 3 6 -1 10 -9 10 -9 0 -16 5 -16 10 0 6 11 10
25 10 34 0 34 -36 1 -52 -31 -14 -53 -5 -68 26 -9 20 -8 30 6 51 18 27 36 31
67 14z m-1843 -184 c-4 -45 -28 -66 -52 -46 -9 7 -13 17 -10 23 4 5 11 5 18
-1 19 -16 26 -3 26 43 0 28 3 37 11 29 6 -6 9 -27 7 -48z m97 45 c4 -6 -7 -10
-25 -10 -21 0 -30 -4 -27 -12 2 -7 14 -12 25 -10 12 2 22 -2 22 -7 0 -6 -11
-11 -25 -11 -16 0 -25 -6 -25 -15 0 -10 10 -15 31 -15 17 0 28 -4 24 -10 -3
-5 -22 -10 -41 -10 l-34 0 0 55 0 55 34 0 c19 0 38 -4 41 -10z m57 -21 l11
-31 13 31 c20 48 34 38 34 -24 0 -55 -19 -80 -21 -27 -1 27 -1 27 -8 3 -10
-37 -27 -36 -36 1 l-9 33 -3 -33 c-6 -46 -23 -29 -23 22 0 64 23 78 42 25z
m147 -16 c23 -59 28 -60 42 -14 20 66 35 71 59 20 11 -24 20 -50 20 -56 0 -18
-17 -16 -23 1 -7 17 -32 15 -49 -2 -16 -16 -45 -15 -51 2 -7 17 -29 15 -51 -3
-14 -11 -16 -11 -16 3 0 27 32 97 43 93 5 -1 17 -21 26 -44z m211 37 c0 -5 -7
-10 -15 -10 -11 0 -15 -12 -15 -45 0 -25 -4 -45 -10 -45 -5 0 -10 20 -10 45 0
33 -4 45 -15 45 -8 0 -15 5 -15 10 0 6 18 10 40 10 22 0 40 -4 40 -10z m122
-44 c18 -47 16 -78 -3 -43 -12 21 -27 22 -51 0 -10 -9 -20 -14 -23 -11 -9 8
37 109 48 105 5 -1 18 -25 29 -51z m56 6 c-3 -34 0 -37 27 -43 23 -5 26 -7 13
-13 -9 -4 -27 -6 -40 -4 -19 2 -24 10 -26 42 -2 21 -1 45 2 53 10 26 27 2 24
-35z m217 1 c21 -49 20 -70 -1 -52 -22 18 -44 20 -51 3 -6 -16 -23 -19 -23 -5
0 23 41 102 50 96 6 -4 17 -22 25 -42z m57 25 c2 -13 10 -23 18 -23 8 0 16 10
18 23 7 44 22 21 22 -33 0 -30 -4 -55 -10 -55 -5 0 -10 11 -10 25 0 18 -5 25
-20 25 -15 0 -20 -7 -20 -25 0 -14 -4 -25 -10 -25 -5 0 -10 25 -10 55 0 54 15
77 22 33z m179 12 c13 -7 19 -21 19 -43 0 -40 -15 -57 -52 -57 -27 0 -28 1
-28 55 0 49 2 55 21 55 11 0 29 -5 40 -10z m59 -45 c0 -30 -4 -55 -10 -55 -5
0 -10 25 -10 55 0 30 5 55 10 55 6 0 10 -25 10 -55z m80 0 c0 -30 -4 -55 -10
-55 -5 0 -10 25 -10 55 0 30 5 55 10 55 6 0 10 -25 10 -55z m57 23 l18 -33 3
33 c5 53 22 36 22 -23 0 -63 -12 -69 -40 -22 l-20 32 0 -32 c0 -18 -4 -33 -10
-33 -5 0 -10 25 -10 55 0 63 12 70 37 23z m133 12 c24 -24 25 -38 4 -68 -10
-14 -25 -22 -45 -22 -28 0 -29 2 -29 48 0 27 3 52 7 55 13 13 43 7 63 -13z
m108 4 c47 -33 9 -107 -46 -88 -33 11 -43 62 -17 88 20 20 35 20 63 0z m77
-25 c9 -27 23 -23 18 5 -3 13 0 27 6 30 7 5 11 -11 11 -48 0 -64 -11 -71 -37
-23 l-18 32 -3 -33 c-2 -18 -8 -30 -13 -27 -10 7 -13 88 -2 98 9 9 31 -11 38
-34z m135 31 c0 -5 -11 -10 -25 -10 -15 0 -25 -6 -25 -14 0 -9 7 -12 19 -9 10
3 22 0 25 -6 5 -7 -3 -11 -18 -11 -16 0 -26 -6 -26 -15 0 -9 9 -15 25 -15 14
0 25 -5 25 -11 0 -6 -16 -9 -37 -7 -36 3 -38 5 -41 42 -2 21 -1 44 2 52 6 16
76 20 76 4z m74 4 c9 -3 16 -13 16 -22 0 -12 -3 -13 -12 -4 -14 14 -38 16 -38
3 0 -5 11 -12 24 -15 29 -7 41 -33 25 -53 -17 -19 -63 -13 -67 10 -3 16 -1 17
17 5 15 -9 23 -10 32 -1 8 8 2 13 -20 21 -21 7 -31 18 -31 31 0 25 24 37 54
25z m56 -50 c0 -34 -4 -53 -10 -49 -18 11 -12 105 7 105 2 0 3 -25 3 -56z m95
1 c17 -45 13 -75 -5 -45 -12 19 -31 20 -52 2 -16 -13 -18 -13 -18 0 0 17 24
79 36 90 11 12 20 1 39 -47z m-1245 5 c0 -36 3 -40 25 -40 14 0 25 -4 25 -10
0 -5 -16 -10 -35 -10 l-35 0 0 50 c0 28 5 50 10 50 6 0 10 -18 10 -40z"/>
<path d="M1475 3250 c-8 -12 20 -24 35 -15 6 3 8 11 5 16 -8 12 -32 12 -40 -1z"/>
<path d="M1760 3230 c0 -5 5 -10 10 -10 6 0 10 5 10 10 0 6 -4 10 -10 10 -5 0
-10 -4 -10 -10z"/>
<path d="M2027 3254 c-11 -11 -8 -52 4 -60 6 -3 18 1 27 10 13 12 14 21 6 33
-12 20 -27 26 -37 17z"/>
<path d="M2140 3224 c0 -8 5 -12 10 -9 6 4 8 11 5 16 -9 14 -15 11 -15 -7z"/>
<path d="M2620 3225 c0 -29 3 -36 18 -33 11 2 17 13 17 33 0 20 -6 31 -17 33
-15 3 -18 -4 -18 -33z"/>
<path d="M2735 3231 c-3 -5 -1 -12 5 -16 5 -3 10 1 10 9 0 18 -6 21 -15 7z"/>
<path d="M1400 3085 c0 -8 5 -15 10 -15 6 0 10 7 10 15 0 8 -4 15 -10 15 -5 0
-10 -7 -10 -15z"/>
<path d="M1506 3091 c-4 -7 -5 -15 -2 -18 9 -9 19 4 14 18 -4 11 -6 11 -12 0z"/>
<path d="M1730 3085 c0 -8 5 -15 10 -15 6 0 10 7 10 15 0 8 -4 15 -10 15 -5 0
-10 -7 -10 -15z"/>
<path d="M2010 3086 c0 -9 5 -16 10 -16 6 0 10 4 10 9 0 6 -4 13 -10 16 -5 3
-10 -1 -10 -9z"/>
<path d="M2240 3085 c0 -29 3 -36 18 -33 11 2 17 13 17 33 0 20 -6 31 -17 33
-15 3 -18 -4 -18 -33z"/>
<path d="M2567 3114 c-4 -4 -7 -20 -7 -36 0 -23 4 -29 18 -26 11 2 17 13 17
32 0 29 -14 43 -28 30z"/>
<path d="M2672 3108 c-17 -17 -15 -48 4 -55 8 -3 22 1 31 9 12 12 13 20 4 37
-13 24 -22 26 -39 9z"/>
<path d="M3116 3091 c-4 -7 -5 -15 -2 -18 9 -9 19 4 14 18 -4 11 -6 11 -12 0z"/>
<path d="M2325 2758 c-44 -5 -84 -13 -88 -17 -5 -5 -5 -120 -1 -257 l7 -249
116 0 c99 0 123 -4 166 -23 56 -26 103 -66 116 -99 12 -32 31 -28 50 10 37 76
161 122 309 115 l87 -4 2 258 c2 244 2 258 -16 258 -10 1 -51 5 -92 9 -128 15
-231 -8 -293 -67 l-28 -26 -27 26 c-41 38 -82 56 -154 67 -35 6 -66 10 -69 10
-3 -1 -41 -6 -85 -11z m231 -46 c22 -11 54 -35 72 -53 l32 -33 33 34 c63 65
153 88 291 75 l76 -7 0 -187 c0 -104 -3 -208 -6 -232 l-6 -44 -44 3 c-105 9
-277 -45 -321 -101 l-20 -26 -33 34 c-18 18 -54 43 -79 54 -61 26 -171 45
-230 39 l-48 -5 -7 225 c-3 124 -3 229 1 233 27 26 233 20 289 -9z"/>
<path d="M2492 2538 c4 -67 19 -65 22 2 1 36 -2 50 -12 50 -9 0 -12 -14 -10
-52z"/>
<path d="M2532 2538 c2 -31 7 -51 13 -48 6 3 9 15 7 28 -4 31 10 27 30 -9 24
-41 38 -29 38 32 0 54 -17 68 -22 17 l-3 -33 -18 33 c-28 52 -49 42 -45 -20z"/>
<path d="M2680 2552 c0 -45 -8 -56 -27 -40 -21 17 -29 0 -10 -20 28 -27 51 -5
55 52 2 27 -1 46 -7 46 -6 0 -11 -17 -11 -38z"/>
<path d="M2720 2541 c0 -28 5 -53 10 -56 6 -4 10 15 10 49 0 31 -4 56 -10 56
-5 0 -10 -22 -10 -49z"/>
<path d="M2762 2538 c3 -52 3 -52 36 -53 18 0 36 3 38 7 3 4 -6 8 -20 8 -24 0
-26 3 -26 45 0 34 -4 45 -16 45 -12 0 -14 -10 -12 -52z"/>
<path d="M2333 2443 c-24 -9 -14 -42 18 -59 24 -12 29 -18 18 -25 -8 -5 -20
-2 -30 7 -10 9 -20 11 -23 6 -10 -16 21 -34 51 -30 42 5 44 41 4 58 -17 7 -31
16 -31 21 0 12 7 11 31 -1 15 -8 19 -7 19 4 0 20 -30 31 -57 19z"/>
<path d="M2776 2443 c-3 -3 -6 -18 -6 -32 l-1 -26 -17 28 c-26 43 -42 34 -42
-23 0 -27 5 -50 10 -50 6 0 10 15 10 33 l0 32 21 -32 c31 -49 49 -43 49 16 0
47 -9 68 -24 54z"/>
<path d="M2822 2398 l3 -53 35 0 c35 0 35 0 38 48 2 28 -1 47 -7 47 -6 0 -11
-18 -11 -40 0 -33 -3 -40 -20 -40 -17 0 -20 7 -20 39 0 22 -5 43 -11 46 -7 5
-9 -11 -7 -47z"/>
<path d="M2927 2444 c-11 -11 -9 -104 3 -104 6 0 10 9 10 20 0 13 7 20 20 20
13 0 20 -7 20 -20 0 -11 7 -20 16 -20 12 0 14 10 12 50 -3 50 -20 69 -26 30
-5 -28 -34 -22 -42 8 -3 13 -8 20 -13 16z"/>
<path d="M2415 2390 l0 -50 43 0 c26 0 41 4 37 10 -3 6 -17 10 -31 10 -13 0
-24 5 -24 10 0 6 11 10 25 10 14 0 25 5 25 10 0 6 -11 10 -25 10 -14 0 -25 6
-25 14 0 9 8 12 24 9 13 -3 27 0 30 6 5 7 -7 11 -36 11 l-43 0 0 -50z"/>
<path d="M2510 2390 c0 -38 4 -50 15 -50 8 0 15 9 15 20 0 13 7 20 19 20 24 0
43 23 35 44 -4 11 -18 16 -45 16 l-39 0 0 -50z m60 19 c0 -5 -7 -9 -15 -9 -8
0 -15 7 -15 15 0 9 6 12 15 9 8 -4 15 -10 15 -15z"/>
<path d="M2610 2390 l0 -50 40 0 c22 0 40 5 40 10 0 6 -13 10 -30 10 -16 0
-30 5 -30 10 0 6 11 10 24 10 34 0 42 18 11 22 -14 2 -25 8 -25 13 1 6 12 9
25 7 14 -2 25 1 25 7 0 6 -18 11 -40 11 l-40 0 0 -50z"/>
<path d="M1281 2425 c-207 -58 -415 -272 -504 -518 -39 -108 -49 -253 -22
-323 20 -53 66 -109 105 -129 83 -43 197 -38 294 13 28 15 54 28 57 30 4 1 9
-11 12 -28 8 -39 41 -53 94 -38 56 15 73 34 73 83 0 55 22 125 82 263 73 169
66 177 -149 170 l-126 -4 -28 -32 c-33 -37 -39 -91 -13 -116 19 -19 35 -20 77
-3 49 21 87 28 87 18 0 -21 -94 -132 -137 -160 -83 -55 -143 -34 -143 52 0
154 99 390 217 518 58 62 104 89 152 89 37 0 39 -9 6 -40 -99 -93 41 -234 156
-157 101 67 88 222 -25 291 -40 25 -59 30 -129 33 -52 2 -102 -3 -136 -12z
m205 -20 c31 -9 63 -28 84 -50 30 -31 35 -42 38 -99 4 -62 3 -65 -31 -102 -30
-33 -41 -39 -75 -39 -87 0 -123 88 -61 146 36 33 35 59 -3 71 -85 29 -216 -77
-312 -252 -79 -145 -127 -364 -97 -439 30 -71 117 -62 209 24 58 54 118 146
107 165 -9 14 -46 12 -95 -5 -57 -20 -77 -19 -85 5 -7 23 18 75 41 84 9 3 69
9 133 12 95 5 120 3 136 -9 23 -17 27 -2 -59 -212 -26 -62 -48 -135 -52 -168
-7 -64 -27 -87 -76 -87 -36 0 -50 27 -38 71 5 18 8 34 7 36 -2 1 -25 -13 -52
-32 -79 -56 -148 -78 -233 -72 -61 3 -80 9 -115 34 -269 195 77 858 483 926
53 9 98 6 146 -8z"/>
<path d="M1292 2385 c-264 -74 -513 -408 -512 -686 0 -88 21 -140 73 -186 43
-37 85 -47 171 -41 78 7 146 41 223 112 l59 54 -23 -66 c-30 -90 -30 -102 5
-102 44 0 55 14 63 78 4 36 29 116 63 201 32 77 54 146 50 152 -5 8 -41 10
-126 6 -95 -4 -123 -9 -139 -23 -23 -20 -22 -61 1 -55 134 37 127 36 149 17
19 -17 19 -21 5 -54 -37 -90 -139 -188 -220 -212 -53 -16 -92 1 -116 50 -60
120 51 449 208 619 64 70 122 101 186 101 71 0 104 -52 54 -85 -13 -9 -29 -29
-36 -45 -23 -56 33 -104 96 -83 96 32 90 188 -9 240 -44 22 -159 26 -225 8z"/>
<path d="M3340 2294 c-145 -38 -322 -153 -450 -292 -223 -241 -378 -598 -301
-693 l19 -23 88 21 c49 12 110 25 136 28 90 12 105 68 31 118 -41 27 -43 31
-42 75 0 26 10 74 22 107 l22 60 103 3 c78 2 102 0 102 -10 0 -7 -11 -46 -25
-86 -13 -41 -29 -109 -36 -152 -10 -71 -9 -83 7 -117 23 -47 42 -50 127 -24
36 11 94 23 129 27 34 3 73 13 86 20 32 21 28 59 -9 93 l-30 28 15 60 c9 34
38 119 65 189 77 204 139 404 147 471 6 57 5 63 -19 87 -22 22 -35 26 -79 25
-29 0 -78 -7 -108 -15z m160 -24 c43 -43 26 -121 -96 -451 -83 -227 -114 -329
-107 -360 2 -9 15 -22 28 -29 50 -27 21 -70 -46 -70 -18 0 -73 -10 -122 -22
-65 -16 -94 -19 -105 -11 -37 22 -21 157 38 327 11 33 18 61 16 63 -2 2 -59 4
-127 4 -141 -1 -139 0 -165 -86 -37 -124 -28 -178 35 -204 16 -7 32 -19 35
-27 7 -19 -21 -44 -52 -44 -14 0 -66 -10 -115 -22 -64 -16 -94 -19 -105 -11
-39 24 -18 143 54 300 110 243 361 511 559 598 64 29 188 64 228 64 15 1 36
-8 47 -19z"/>
<path d="M3395 2263 c-62 -14 -158 -50 -214 -80 -225 -121 -455 -407 -546
-677 -25 -75 -33 -160 -16 -171 6 -3 36 3 68 14 32 10 84 22 116 26 31 4 60
11 63 16 3 5 -11 16 -30 25 -19 9 -40 27 -46 40 -19 34 -7 148 21 219 l24 60
148 3 c81 1 147 -1 147 -6 0 -5 -9 -35 -21 -68 -24 -71 -69 -251 -69 -280 0
-11 6 -28 13 -38 13 -17 16 -17 79 2 37 12 95 24 130 28 34 4 67 9 71 11 5 3
-5 18 -22 34 -50 45 -46 69 74 389 112 298 142 427 105 450 -15 10 -59 11 -95
3z m-123 -113 c9 -13 -38 -159 -111 -342 l-11 -28 -139 0 c-77 0 -142 4 -145
8 -8 13 92 154 157 220 58 60 163 142 197 155 23 9 42 4 52 -13z"/>
<path d="M3179 2122 c-71 -46 -153 -126 -223 -221 -36 -49 -66 -91 -66 -95 0
-4 57 -5 127 -4 l126 3 58 155 c32 85 58 163 59 173 0 25 -30 21 -81 -11z m51
-9 c0 -3 -23 -68 -52 -145 -40 -108 -56 -140 -72 -144 -12 -3 -56 -4 -99 -2
l-79 3 50 65 c86 112 252 259 252 223z"/>
<path d="M1863 2235 c-155 -35 -270 -150 -289 -286 -15 -107 44 -204 177 -295
74 -50 109 -92 109 -132 0 -37 -37 -99 -77 -129 -30 -23 -46 -28 -94 -28 -47
0 -63 4 -81 23 -20 20 -23 33 -24 112 0 98 -10 120 -54 120 -40 0 -59 -28 -91
-137 -44 -151 -40 -165 57 -210 228 -104 524 -7 622 206 38 81 38 187 0 252
-31 53 -90 109 -175 167 -70 47 -83 66 -83 114 0 56 67 108 139 108 51 0 60
-15 27 -49 -38 -40 -35 -84 8 -127 27 -27 42 -34 73 -34 51 0 98 30 123 79 46
92 2 192 -104 236 -54 23 -187 28 -263 10z m275 -43 c55 -29 82 -73 82 -134 0
-87 -81 -149 -150 -113 -41 21 -55 57 -35 94 8 16 21 31 30 34 21 9 19 44 -4
57 -28 14 -90 15 -132 1 -54 -17 -90 -61 -96 -115 -5 -44 -4 -48 39 -89 24
-23 75 -65 113 -93 44 -31 81 -69 100 -99 27 -44 30 -57 30 -129 -1 -68 -5
-89 -27 -131 -48 -93 -155 -175 -265 -204 -114 -31 -314 -1 -370 55 -28 28
-28 26 11 159 28 96 46 121 77 104 16 -8 19 -22 19 -95 0 -84 1 -87 34 -120
31 -31 39 -34 92 -34 106 0 194 81 194 179 0 62 -21 92 -102 148 -135 94 -178
156 -178 255 1 123 98 236 245 285 26 8 77 12 145 10 86 -2 113 -7 148 -25z"/>
<path d="M1874 2196 c-34 -8 -76 -22 -94 -31 -43 -22 -118 -92 -136 -127 -24
-47 -34 -118 -22 -172 12 -57 70 -121 179 -197 78 -55 104 -99 96 -166 -19
-169 -266 -251 -340 -112 -15 27 -17 48 -13 106 6 75 -4 98 -30 71 -17 -17
-56 -150 -58 -197 -1 -31 3 -36 44 -57 200 -102 494 -10 581 180 21 46 26 157
8 203 -14 39 -71 95 -164 163 -89 64 -110 94 -109 151 2 79 73 141 168 147 51
3 65 0 89 -18 35 -28 34 -49 -3 -82 -33 -29 -38 -58 -14 -82 40 -41 100 -29
135 26 23 37 21 93 -5 132 -39 60 -190 90 -312 62z"/>
<path d="M2460 1874 c-25 -7 -81 -13 -126 -13 -66 -1 -84 -4 -98 -20 -26 -29
-17 -71 19 -91 24 -14 30 -23 28 -48 -2 -16 -41 -130 -88 -252 -47 -122 -96
-266 -110 -320 -14 -54 -30 -111 -36 -127 -16 -42 -58 -82 -95 -89 -51 -9 -60
4 -25 38 77 76 26 188 -86 188 -122 0 -188 -165 -107 -268 48 -59 103 -82 199
-82 91 0 150 15 235 61 76 40 183 129 216 178 21 33 24 46 19 87 -6 44 0 67
58 221 101 265 137 384 137 451 0 99 -30 118 -140 86z m110 -35 c25 -45 -3
-155 -116 -456 -76 -205 -86 -246 -71 -291 17 -47 -182 -216 -306 -259 -73
-25 -209 -25 -260 1 -52 26 -90 85 -90 139 0 116 115 186 189 116 36 -34 32
-80 -10 -127 -27 -29 -32 -41 -25 -55 14 -24 85 -22 126 3 42 25 66 74 98 199
14 57 66 207 114 334 103 269 108 288 86 311 -9 9 -23 16 -30 16 -8 0 -19 9
-25 19 -19 36 10 50 108 50 48 0 107 6 132 14 51 15 66 13 80 -14z"/>
<path d="M2490 1838 c-14 -6 -70 -13 -124 -17 -56 -3 -101 -11 -103 -17 -2 -5
11 -17 29 -25 56 -24 52 -55 -53 -331 -50 -134 -104 -291 -120 -350 -15 -59
-35 -121 -44 -137 -36 -70 -138 -111 -190 -77 -30 20 -33 59 -7 78 76 54 52
138 -38 138 -60 0 -113 -85 -96 -154 9 -36 55 -87 93 -102 47 -20 151 -17 227
6 125 39 317 194 301 243 -15 44 -5 87 74 298 94 254 123 353 119 411 -3 48
-21 57 -68 36z"/>
</g>
</svg>
